<svg width="21" height="16" viewBox="0 0 21 16" fill="none" xmlns="http://www.w3.org/2000/svg">
<path fill-rule="evenodd" clip-rule="evenodd" d="M18.1907 4.34896C18.8007 4.34896 19.2007 4.55896 19.6007 5.01896C20.0007 5.47896 20.0707 6.13896 19.9807 6.73796L19.0307 13.298C18.8507 14.559 17.7707 15.488 16.5007 15.488H5.59074C4.26074 15.488 3.16074 14.468 3.05074 13.149L2.13074 2.24796L0.620742 1.98796C0.220742 1.91796 -0.0592579 1.52796 0.0107421 1.12796C0.0807421 0.717964 0.470742 0.447964 0.880742 0.507964L3.26574 0.867964C3.60574 0.928964 3.85574 1.20796 3.88574 1.54796L4.07574 3.78796C4.10574 4.10896 4.36574 4.34896 4.68574 4.34896H18.1907ZM12.1307 9.54796H14.9007C15.3207 9.54796 15.6507 9.20796 15.6507 8.79796C15.6507 8.37796 15.3207 8.04796 14.9007 8.04796H12.1307C11.7107 8.04796 11.3807 8.37796 11.3807 8.79796C11.3807 9.20796 11.7107 9.54796 12.1307 9.54796Z" fill="url(#paint0_linear_576_17)"/>
<defs>
<linearGradient id="paint0_linear_576_17" x1="-2.83832e-08" y1="-0.420702" x2="22.6895" y2="4.2738" gradientUnits="userSpaceOnUse">
<stop stop-color="#53E88B"/>
<stop offset="1" stop-color="#15BE77"/>
</linearGradient>
</defs>
</svg>
